<?xml version="1.0" encoding="UTF-8"?>
<svg xmlns="http://www.w3.org/2000/svg" viewBox="0 0 1500 500" preserveAspectRatio="xMidYEnd meet" role="img" aria-label="Skyline Marrakech — Dog Universe">
  <g fill="#E8D4A8">
    <!-- ── Ground / horizon ────────────────────────────────────────────── -->
    <path d="M60 436 Q 750 432 1440 436 L 1440 438 Q 750 434 60 438 Z"/>

    <!-- ── Left palms ──────────────────────────────────────────────────── -->
    <!-- Palm tall -->
    <rect x="179" y="250" width="4" height="186" rx="1"/>
    <path d="M181 252 C 150 244, 115 248, 95 258 C 120 242, 155 235, 181 250 Z"/>
    <path d="M181 252 C 212 244, 247 248, 267 258 C 242 242, 207 235, 181 250 Z"/>
    <path d="M181 252 C 171 216, 158 184, 150 158 C 170 190, 180 222, 181 250 Z"/>
    <path d="M181 252 C 191 216, 204 184, 212 158 C 192 190, 182 222, 181 250 Z"/>
    <path d="M181 252 C 135 260, 108 270, 92 280 C 128 258, 160 253, 181 252 Z"/>
    <path d="M181 252 C 227 260, 254 270, 270 280 C 234 258, 202 253, 181 252 Z"/>
    <circle cx="181" cy="250" r="4"/>

    <!-- Palm short -->
    <rect x="233" y="300" width="3" height="136" rx="1"/>
    <path d="M234 302 C 212 296, 188 300, 173 308 C 192 296, 216 291, 234 301 Z"/>
    <path d="M234 302 C 256 296, 280 300, 295 308 C 276 296, 252 291, 234 301 Z"/>
    <path d="M234 302 C 228 278, 221 258, 216 238 C 229 262, 234 282, 234 301 Z"/>
    <path d="M234 302 C 240 278, 247 258, 252 238 C 239 262, 234 282, 234 301 Z"/>
    <circle cx="234" cy="301" r="3"/>

    <!-- ── Left crenellated wall + arched gate ─────────────────────────── -->
    <path d="M300 436 L300 340 L316 340 L316 324 L332 324 L332 340 L348 340 L348 324 L364 324 L364 340 L380 340 L380 324 L396 324 L396 340 L412 340 L412 324 L428 324 L428 340 L444 340 L444 324 L460 324 L460 340 L476 340 L476 436 Z"/>
    <!-- Keyhole arch gate in the wall -->
    <path d="M370 436 L370 382 Q 388 356 406 382 L406 436 Z" fill="#000"/>

    <!-- Mid low wall + second arched gate -->
    <path d="M488 436 L488 356 L502 356 L502 344 L516 344 L516 356 L530 356 L530 344 L544 344 L544 356 L558 356 L558 436 Z"/>
    <path d="M514 436 L514 396 Q 523 378 532 396 L532 436 Z" fill="#000"/>

    <!-- ── Small side dome ─────────────────────────────────────────────── -->
    <path d="M590 436 L590 388 L650 388 L650 436 Z"/>
    <path d="M605 388 Q 620 368 635 388 Z"/>
    <rect x="619" y="368" width="2" height="10"/>
    <circle cx="620" cy="364" r="3"/>

    <!-- ── Central mosque with main dome + arched windows ──────────────── -->
    <!-- Base body -->
    <path d="M680 436 L680 378 L900 378 L900 436 Z"/>

    <!-- Main dome -->
    <path d="M760 378 C 760 330, 820 330, 820 378 Z"/>
    <!-- Dome spire -->
    <rect x="788" y="302" width="4" height="28"/>
    <circle cx="790" cy="300" r="4"/>
    <circle cx="790" cy="290" r="2"/>

    <!-- Side domes (smaller) -->
    <path d="M702 378 C 702 358, 732 358, 732 378 Z"/>
    <path d="M848 378 C 848 358, 878 358, 878 378 Z"/>

    <!-- Three arched windows on the façade -->
    <path d="M732 436 L732 410 Q 744 390 756 410 L756 436 Z" fill="#000"/>
    <path d="M778 436 L778 402 Q 790 380 802 402 L802 436 Z" fill="#000"/>
    <path d="M824 436 L824 410 Q 836 390 848 410 L848 436 Z" fill="#000"/>

    <!-- ── Koutoubia-style minaret ─────────────────────────────────────── -->
    <!-- Main square shaft -->
    <rect x="940" y="200" width="72" height="236"/>
    <!-- Decorative arches on shaft (small) -->
    <path d="M952 280 L952 260 Q 960 248 968 260 L968 280 Z" fill="#000"/>
    <path d="M984 280 L984 260 Q 992 248 1000 260 L1000 280 Z" fill="#000"/>
    <path d="M952 320 L952 300 Q 960 288 968 300 L968 320 Z" fill="#000"/>
    <path d="M984 320 L984 300 Q 992 288 1000 300 L1000 320 Z" fill="#000"/>
    <!-- Upper band with openings -->
    <path d="M956 220 L956 215 L960 215 L960 220 Z" fill="#000"/>
    <path d="M966 220 L966 215 L970 215 L970 220 Z" fill="#000"/>
    <path d="M976 220 L976 215 L980 215 L980 220 Z" fill="#000"/>
    <path d="M986 220 L986 215 L990 215 L990 220 Z" fill="#000"/>
    <path d="M996 220 L996 215 L1000 215 L1000 220 Z" fill="#000"/>
    <!-- Tiered crown -->
    <rect x="948" y="186" width="56" height="14"/>
    <rect x="956" y="160" width="40" height="26"/>
    <rect x="964" y="140" width="24" height="20"/>
    <!-- Small dome on crown -->
    <path d="M968 140 C 968 124, 984 124, 984 140 Z"/>
    <!-- Finial -->
    <rect x="974" y="110" width="4" height="30"/>
    <circle cx="976" cy="105" r="5"/>
    <circle cx="976" cy="92" r="3"/>
    <rect x="974.5" y="70" width="3" height="22"/>

    <!-- ── Right crenellated wall + arched gates ───────────────────────── -->
    <path d="M1030 436 L1030 352 L1046 352 L1046 338 L1062 338 L1062 352 L1078 352 L1078 338 L1094 338 L1094 352 L1110 352 L1110 338 L1126 338 L1126 352 L1142 352 L1142 338 L1158 338 L1158 352 L1174 352 L1174 338 L1190 338 L1190 352 L1206 352 L1206 338 L1222 338 L1222 352 L1238 352 L1238 436 Z"/>
    <!-- Two small arched gates -->
    <path d="M1080 436 L1080 410 Q 1090 395 1100 410 L1100 436 Z" fill="#000"/>
    <path d="M1170 436 L1170 410 Q 1180 395 1190 410 L1190 436 Z" fill="#000"/>

    <!-- ── Right palms ─────────────────────────────────────────────────── -->
    <!-- Palm small -->
    <rect x="1284" y="300" width="3" height="136" rx="1"/>
    <path d="M1285 302 C 1263 296, 1239 300, 1224 308 C 1243 296, 1267 291, 1285 301 Z"/>
    <path d="M1285 302 C 1307 296, 1331 300, 1346 308 C 1327 296, 1303 291, 1285 301 Z"/>
    <path d="M1285 302 C 1279 278, 1272 258, 1267 238 C 1280 262, 1285 282, 1285 301 Z"/>
    <path d="M1285 302 C 1291 278, 1298 258, 1303 238 C 1290 262, 1285 282, 1285 301 Z"/>
    <circle cx="1285" cy="301" r="3"/>

    <!-- Palm tall -->
    <rect x="1339" y="250" width="4" height="186" rx="1"/>
    <path d="M1341 252 C 1310 244, 1275 248, 1255 258 C 1280 242, 1315 235, 1341 250 Z"/>
    <path d="M1341 252 C 1372 244, 1407 248, 1427 258 C 1402 242, 1367 235, 1341 250 Z"/>
    <path d="M1341 252 C 1331 216, 1318 184, 1310 158 C 1330 190, 1340 222, 1341 250 Z"/>
    <path d="M1341 252 C 1351 216, 1364 184, 1372 158 C 1352 190, 1342 222, 1341 250 Z"/>
    <path d="M1341 252 C 1295 260, 1268 270, 1252 280 C 1288 258, 1320 253, 1341 252 Z"/>
    <path d="M1341 252 C 1387 260, 1414 270, 1430 280 C 1394 258, 1362 253, 1341 252 Z"/>
    <circle cx="1341" cy="250" r="4"/>
  </g>
</svg>
